. 
 
http://www.torrenting.com          :     Once & For all ;)


               www . Torrenting . Com 

(((((((((((((= Enjoy No RAR releases =))))))))))))))))))))


...................................NFO:....................................

.[pre]
oooooo     oooo  o8o   .oooooo..o ooooo     ooo       .o.       ooooo         o8o   .oooooo..o oooooooooooo
`888.     .8'   `"'  d8P'    `Y8 `888'     `8'      .888.      `888'         `"'  d8P'    `Y8 `888'     `8
 `888.   .8'   oooo  Y88bo.       888       8      .8"888.      888         oooo  Y88bo.       888        
  `888. .8'    `888   `"Y8888o.   888       8     .8' `888.     888         `888   `"Y8888o.   888oooo8    
   `888.8'      888       `"Y88b  888       8    .88ooo8888.    888          888       `"Y88b  888    "    
    `888'       888  oo     .d8P  `88.    .8'   .8'     `888.   888       o  888  oo     .d8P  888       o
     `8'       o888o 8""88888P'     `YbodP'    o88o     o8888o o888ooooood8 o888o 8""88888P'  o888ooooood8




Title: Earthling 2011 DvDRiP XviD - VISUALiSE
Format: Xvid
Language: English
Subtitles: No
Imdb: http://www.imdb.com/title/tt1398999/

Plot:
After a mysterious atmospheric event, a small group of people 
wake up to realize that their entire lives have been a lie. 
They are in fact aliens disguised as humans. Now they have 
to make a choice. Live amongst men, or try to find a way 
back home

Sources:
Video: Retail DVDR - Many Thanks :D
Audio: Retail DVDR - Many Thanks :D

Release Notes:
Earthling 2011 DvDRiP XviD - VISUALiSE
Straight forward rip from the dvdr ran 
a few filters etc etc  

enjoy. :P

Info:
Video
ID                               : 0
Format                           : MPEG-4 Visual
Codec ID                         : XVID
Codec ID/Hint                    : XviD
Duration                         : 1h 46mn
Bit rate                         : 76.7 Kbps
Width                            : 720 pixels
Height                           : 402 pixels
Display aspect ratio             : 16:9
Frame rate                       : 29.970 fps
Color space                      : YUV
Chroma subsampling               : 4:2:0
Compression mode                 : Lossy
Bits/(Pixel*Frame)               : 0.009
Stream size                      : 58.2 MiB (5%)

Audio
ID                               : 1
Format                           : MPEG Audio
Codec ID                         : 55
Codec ID/Hint                    : MP3
Duration                         : 1h 46mn
Bit rate                         : 128 Kbps
Channel(s)                       : 2 channels
Sampling rate                    : 48.0 KHz
Compression mode                 : Lossy
Stream size                      : 97.2 MiB (8%)
Alignment                        : Aligned on interleaves

Screens:
[IMG]http://i.imgur.com/SZgB8.png[/IMG]

[IMG]http://i.imgur.com/MmlHR.png[/IMG]

[IMG]http://i.imgur.com/Hjmnh.png[/IMG]

[IMG]http://i.imgur.com/YnecK.png[/IMG]


Greetz
The Villian and
The Select Few .... YOU Know Who YOU Are ;)
The Rest Of You ................... SUCK :P
[/pre]